/* XPM */
static char *_901e80ffd3f4c96e26f3e0b33b2ec4b[] = {
/* columns rows colors chars-per-pixel */
"16 16 28 1 ",
"  c #2D2D2D",
". c #2E2D2D",
"X c #382C2D",
"o c #392C2D",
"O c #3A2C2D",
"+ c #412B2C",
"@ c #432B2C",
"# c #522A2C",
"$ c #68282B",
"% c #6C282B",
"& c #6F282A",
"* c #73272A",
"= c #77272A",
"- c #7A272A",
"; c #7E262A",
": c #81262A",
"> c #89252A",
", c #9B2429",
"< c #A62328",
"1 c #A82328",
"2 c #AA2328",
"3 c #AE2228",
"4 c #BF2127",
"5 c #B72228",
"6 c #C92027",
"7 c #CA2027",
"8 c #CB2027",
"9 c None",
/* pixels */
"9999999999999999",
"999999999  99999",
"999999999o   999",
"999 9988888:  99",
"999 >86%o988<999",
"99 #82 O=9999999",
"99 58 *888899999",
"99 8, 8899999999",
"9  8% 8899999999",
"99 8, 8899999999",
"99 58 -888899999",
"99 #83 +%9999999",
"999 >86%o9882999",
"999 9966888;  99",
"999999999o   999",
"999999999  99999"
};
