/* XPM */
static char *_7773c922c444e70e38d978c4b2e4a54[] = {
/* columns rows colors chars-per-pixel */
"64 64 3 1 ",
"  c #2D2D2D",
". c #CB2027",
"X c None",
/* pixels */
"XXXXXXXXXXXXXXXXXXXXXXXXXXXXXXXXXXXXXXXXXXXXXXXXXXXXXXXXXXXXXXXX",
"XXXXXXXXXXXXXXXXXXXXXXXXXXXXXXXXXXXXXXXXXXXXXXXXXXXXXXXXXXXXXXXX",
"XXXXXXXXXXXXXXXXXXXXXXXXXXXXXXXXXXXXXXXXXXXXXXXXXXXXXXXXXXXXXXXX",
"XXXXXXXXXXXXXXXXXXXXXXXXXXXXXXXXXXXXXXXXXXXXXXXXXXXXXXXXXXXXXXXX",
"XXXXXXXXXXXXXXXXXXXXXXXXXXXXXXXX     XXXXXXXXXXXXXXXXXXXXXXXXXXX",
"XXXXXXXXXXXXXXXXXXXXXXXXXXXXXXXX         XXXXXXXXXXXXXXXXXXXXXXX",
"XXXXXXXXXXXXXXXXXXXXXXXXXXXXXXXX           XXXXXXXXXXXXXXXXXXXXX",
"XXXXXXXXXXXXXXXXXXXXXXXXXXXXXXXX              XXXXXXXXXXXXXXXXXX",
"XXXXXXXXXXXXXXXXXXXXXXXXXXXXXXXX               XXXXXXXXXXXXXXXXX",
"XXXXXXXXXXXXXXXXXXXXXXXXXXXXXXXXXXXX             XXXXXXXXXXXXXXX",
"XXXXXXXXXXXXXXXXXXXXXXXXXXX..........XXX          XXXXXXXXXXXXXX",
"XXXXXXXXXXXXXXXXXXXXXXXX................XX         XXXXXXXXXXXXX",
"XXXXXXXXXXXXXXXXXXXXX......................X        XXXXXXXXXXXX",
"XXXXXXXXXXX  XXXXXXX........................XX      XXXXXXXXXXXX",
"XXXXXXXXXX    XXXX............................X    XXXXXXXXXXXXX",
"XXXXXXXXX      XX...........XXXXXXXX...........X  XXXXXXXXXXXXXX",
"XXXXXXXX       X.........XX     XXXXXXX.........XXXXXXXXXXXXXXXX",
"XXXXXXXX      X........XX       XXXXXXXXX.......XXXXXXXXXXXXXXXX",
"XXXXXXX      X.......XX         XXXXXXXXXXX....XXXXXXXXXXXXXXXXX",
"XXXXXX      X.......X           XXXXXXXXXXXX..XXXXXXXXXXXXXXXXXX",
"XXXXXX      X......X            XXXXXXXXXXXXXXXXXXXXXXXXXXXXXXXX",
"XXXXXX     X......X         XXXXXXXXXXXXXXXXXXXXXXXXXXXXXXXXXXXX",
"XXXXX      ......X        XX........XXXXXXXXXXXXXXXXXXXXXXXXXXXX",
"XXXXX     X......X      XX............XXXXXXXXXXXXXXXXXXXXXXXXXX",
"XXXX      X.....X      XX..............XXXXXXXXXXXXXXXXXXXXXXXXX",
"XXXX     X......X     XX................XXXXXXXXXXXXXXXXXXXXXXXX",
"XXXX     X.....X      X................XXXXXXXXXXXXXXXXXXXXXXXXX",
"XXXX     X.....X     X.......XXXXXX...XXXXXXXXXXXXXXXXXXXXXXXXXX",
"XXXX     ......      X......XXXXXXXXXXXXXXXXXXXXXXXXXXXXXXXXXXXX",
"XXX      .....X     X......XXXXXXXXXXXXXXXXXXXXXXXXXXXXXXXXXXXXX",
"XXX     X.....X     X.....XXXXXXXXXXXXXXXXXXXXXXXXXXXXXXXXXXXXXX",
"XXX     X.....X     X.....XXXXXXXXXXXXXXXXXXXXXXXXXXXXXXXXXXXXXX",
"XXX     X.....X     X.....XXXXXXXXXXXXXXXXXXXXXXXXXXXXXXXXXXXXXX",
"XXX     X.....X     X.....XXXXXXXXXXXXXXXXXXXXXXXXXXXXXXXXXXXXXX",
"XXX     X.....X     X.....XXXXXXXXXXXXXXXXXXXXXXXXXXXXXXXXXXXXXX",
"XXX     X.....X     X......XXXXXXXXXXXXXXXXXXXXXXXXXXXXXXXXXXXXX",
"XXX      .....X     X......XXXXXXXXXXXXXXXXXXXXXXXXXXXXXXXXXXXXX",
"XXXX     ......      X......XXXXXXXX.XXXXXXXXXXXXXXXXXXXXXXXXXXX",
"XXXX     X.....X     X........XXXXX...XXXXXXXXXXXXXXXXXXXXXXXXXX",
"XXXX     X.....X      X................XXXXXXXXXXXXXXXXXXXXXXXXX",
"XXXX     X......X      X................XXXXXXXXXXXXXXXXXXXXXXXX",
"XXXXX     X.....X      XX..............XXXXXXXXXXXXXXXXXXXXXXXXX",
"XXXXX     X......X       X............XXXXXXXXXXXXXXXXXXXXXXXXXX",
"XXXXX      ......X        XXX......XXXXXXXXXXXXXXXXXXXXXXXXXXXXX",
"XXXXXX     X......X         XXXXXXXXXXXXXXXXXXXXXXXXXXXXXXXXXXXX",
"XXXXXX      X......X            XXXXXXXXXXXXXXXXXXXXXXXXXXXXXXXX",
"XXXXXXX     X.......X           XXXXXXXXXXXX..XXXXXXXXXXXXXXXXXX",
"XXXXXXX      X.......XX         XXXXXXXXXXX....XXXXXXXXXXXXXXXXX",
"XXXXXXXX      X........XX       XXXXXXXXX.......XXXXXXXXXXXXXXXX",
"XXXXXXXX       X.........XX     XXXXXXX.........XXXXXXXXXXXXXXXX",
"XXXXXXXXX      XX...........XXXXXXXX...........X  XXXXXXXXXXXXXX",
"XXXXXXXXXX    XXXX............................X    XXXXXXXXXXXXX",
"XXXXXXXXXXX  XXXXXXX........................XX      XXXXXXXXXXXX",
"XXXXXXXXXXXXXXXXXXXXX......................X        XXXXXXXXXXXX",
"XXXXXXXXXXXXXXXXXXXXXXXX................XX         XXXXXXXXXXXXX",
"XXXXXXXXXXXXXXXXXXXXXXXXXXX..........XXX          XXXXXXXXXXXXXX",
"XXXXXXXXXXXXXXXXXXXXXXXXXXXXXXXXXXXX             XXXXXXXXXXXXXXX",
"XXXXXXXXXXXXXXXXXXXXXXXXXXXXXXXX               XXXXXXXXXXXXXXXXX",
"XXXXXXXXXXXXXXXXXXXXXXXXXXXXXXXX              XXXXXXXXXXXXXXXXXX",
"XXXXXXXXXXXXXXXXXXXXXXXXXXXXXXXX           XXXXXXXXXXXXXXXXXXXXX",
"XXXXXXXXXXXXXXXXXXXXXXXXXXXXXXXX         XXXXXXXXXXXXXXXXXXXXXXX",
"XXXXXXXXXXXXXXXXXXXXXXXXXXXXXXXX    XXXXXXXXXXXXXXXXXXXXXXXXXXXX",
"XXXXXXXXXXXXXXXXXXXXXXXXXXXXXXXXXXXXXXXXXXXXXXXXXXXXXXXXXXXXXXXX",
"XXXXXXXXXXXXXXXXXXXXXXXXXXXXXXXXXXXXXXXXXXXXXXXXXXXXXXXXXXXXXXXX"
};
